#!OML:ASF F:\VICON\USERDATA\INSTALL\rory3\rory3.ASF
:FULLY-SPECIFIED
:DEGREES
45
root 0.5609775485353401 18.100792276055603 12.938532869105988 -3.7853734799193175 -2.021787789312077 -6.684070656608293
lfemur -26.418104002875946 4.63711521205132 -12.149331947652605
ltibia 70.95486598048811
lfoot -6.316375296834519 -2.6016082687807383
ltoes -8.024234761853872
rfemur -4.752009661069446 6.866377554128973 34.49701327616262
rtibia 27.43216036766289
rfoot -18.441095826982245 -8.416198697845639
rtoes 11.024574443507511
lowerback 10.980770855880234 0.8855877537080116 4.771540184649373
upperback 0.4889389326645401 1.9013964597228332 2.541399799407902
thorax -5.544286050187271 0.8457547539291476 -0.4359664184976656
lowerneck -16.03801639447644 -3.04898820271755 -1.476326727040345
upperneck 20.873656366242344 -3.9667515258914894 0.5029382395655766
head 9.238456836905906 -1.9202706364507955 -0.0978141865294791
lclavicle -9.81752679154491e-16 -8.26144457852547e-16
lhumerus -33.283439023326764 0.9055118692625199 83.23460864290354
lradius 25.628805588879537
lwrist 5.737363046342372
lhand -29.241675884361264 21.662609463387042
lfingers 7.125020000000057
lthumb -2.584680775545527 51.63795394086263
rclavicle -9.81752679154491e-16 -8.26144457852547e-16
rhumerus -26.950824253806694 -15.740138788744012 -80.46931737443359
rradius 25.408316469965698
rwrist 2.3496142511198777
rhand -17.361828128255393 29.763269231715842
rfingers 7.125020000000057
rthumb 8.886599478636198 -8.435482224899086
46
root 0.5613107137644011 18.034648537171012 13.84264290345504 -3.1066571243756536 -2.741276322812933 -7.2908385248838385
lfemur -28.88133095569566 3.7491178067927287 -11.39133874430867
ltibia 61.349050965136925
lfoot -7.575288550866794 0.862803516695994
ltoes -6.859105833556241
rfemur -2.167592555253174 7.150515839830879 35.288872976386635
rtibia 26.36869638762138
rfoot -20.455698373918903 -8.956975176072895
rtoes 10.676003933639047
lowerback 10.983459698617125 1.233309994473294 5.678414796997125
upperback 0.4390159574158306 2.473294752184209 2.467286415905978
thorax -5.542696952223704 1.1010623282948022 -1.1181382173088505
lowerneck -16.315421986655924 -3.0538097228627556 -1.4228270596088324
upperneck 20.519184186383786 -3.975707572613901 0.49620254154794696
head 9.167867371012589 -1.920723543028195 -0.1111058346266961
lclavicle -9.801190013960941e-16 -8.248794954672128e-16
lhumerus -34.30566321568077 1.6524440578829998 83.26409354199427
lradius 25.564228119555302
lwrist 6.098547538881716
lhand -29.387272101460045 21.104730979813986
lfingers 7.125020000000057
lthumb -2.72530946592381 51.076771657785635
rclavicle -9.801190013960941e-16 -8.248794954672128e-16
rhumerus -24.807548244703177 -12.862795726113438 -81.49655373449562
rradius 27.615173545908114
rwrist 0.2313015419212361
rhand -17.51349716712478 29.882287683224416
rfingers 7.125020000000057
rthumb 8.740173045349795 -7.934550791713336
47
root 0.5730860392621757 17.96885338855409 15.143115589970696 -2.2049167133161895 -3.2597167659498556 -7.82274681736177
lfemur -29.708404462188177 1.8242851041346528 -10.022914339615097
ltibia 49.502415581111606
lfoot -7.524861436304507 4.351149993206126
ltoes -5.611526909976602
rfemur 1.0537129537180672 7.502122351224024 36.162113558336436
rtibia 24.91655465713082
rfoot -22.06360656961582 -9.33767836395506
rtoes 9.79724894744692
lowerback 10.894803136078455 1.5668240333434325 6.563386686447824
upperback 0.39666856905543285 3.0145959229972497 2.4733266311860955
thorax -5.422530036817095 1.343481012746792 -1.6120069184446226
lowerneck -16.631439153976533 -3.045940224897461 -1.362292405127476
upperneck 20.22118497075831 -3.9616141592290033 0.5364454690049485
head 9.126712865518762 -1.9121167203605571 -0.11038221343322907
lclavicle -5.333393505840137e-16 -4.789367181796122e-16
lhumerus -34.91600277392781 2.6488300359876256 83.38458294919839
lradius 26.11897969178353
lwrist 6.462227300912579
lhand -29.42528338350686 20.917244933068922
lfingers 7.125020000000058
lthumb -2.762041996952685 50.88658783832595
rclavicle -5.333393505840137e-16 -4.789367181796122e-16
rhumerus -22.44139318093734 -10.112634396266385 -81.96370820935874
rradius 30.449836323208032
rwrist -1.251249397169711
rhand -17.616615667187695 30.223679795503305
rfingers 7.125020000000058
rthumb 8.64065084617481 -6.9973283527680925
48
root 0.5610150716997087 17.879596766945024 15.50820440826921 -1.3919366339186072 -3.875484579441843 -8.415629154321454
lfemur -30.248896581036664 -1.0506784405992764 -8.656665328121134
ltibia 35.27968517724803
lfoot -7.7639005913275945 7.130497410746174
ltoes -5.416188331069753
rfemur 3.7426389070408543 7.60918429556104 36.62032932706301
rtibia 22.045337883146182
rfoot -24.045913145817067 -9.620329708478916
rtoes 7.3633487210487685
lowerback 10.5336905902638 1.8210782177122566 7.111666557550553
upperback 0.3132460711983452 3.401886748228611 2.449942381450243
thorax -5.318524550207615 1.5219745799621887 -2.080031487019003
lowerneck -17.028598601179645 -3.087936298569467 -1.3251845044664048
upperneck 19.78025121107324 -4.031104812887738 0.524830686053678
head 9.050723253567176 -1.9355693256069553 -0.12769567199210785
lclavicle -9.96726752999086e-16 -8.377389184506424e-16
lhumerus -35.97057333817562 3.501264763405933 83.08497377153266
lradius 24.510226595647566
lwrist 5.97182965605915
lhand -29.546218505242962 20.48229040068523
lfingers 7.125020000000057
lthumb -2.8788309801193774 50.45121680502967
rclavicle -9.96726752999086e-16 -8.377389184506424e-16
rhumerus -20.8058097190512 -8.78056334383679 -82.57011617483147
rradius 31.135042130998105
rwrist -2.6268666933376004
rhand -17.753753736461636 30.2013223779909
rfingers 7.125020000000057
rthumb 8.508292039532126 -6.4924044030962405
49
root 0.5887208000771504 17.811186355897902 16.962674755540906 -0.5381618820360737 -4.167884474542259 -8.603317658877922
lfemur -29.146922227332556 -3.7601727101140314 -7.295399103435159
ltibia 23.51485241772194
lfoot -7.1333804329271135 9.270232237223038
ltoes -5.260516230965838
rfemur 7.459720750627293 7.792889368578303 37.07938293295662
rtibia 20.833448753969666
rfoot -25.165464730590532 -9.293138557793469
rtoes 4.039859962868213
lowerback 10.220182671809788 2.113976844415436 7.58680002026297
upperback 0.2754843677381584 3.8205780378738794 2.450556114530295
thorax -5.073246907641842 1.7181379122722564 -2.2813493133064435
lowerneck -17.24153291439955 -3.0885260771242 -1.2696378905252357
upperneck 19.66767943806259 -4.038198878788195 0.6190912377986733
head 9.056647193632891 -1.933930017952808 -0.11094323635442127
lclavicle -3.851976005057667e-16 -3.642301251542857e-16
lhumerus -36.229902421586914 5.0211115786475995 82.96892039583395
lradius 24.574865606925542
lwrist 5.853986607457287
lhand -29.44200345066148 20.915138911711537
lfingers 7.125020000000059
lthumb -2.7781917624303416 50.8850774847848
rclavicle -3.851976005057667e-16 -3.642301251542857e-16
rhumerus -18.81734184071741 -7.442826848853038 -82.40572086137321
rradius 33.37443069450365
rwrist -2.8523603966501176
rhand -17.79194201985141 30.543060946535626
rfingers 7.125020000000059
rthumb 8.471411063566995 -5.815048360015447
50
root 0.5931312979992517 17.73479341571828 17.34357554096242 -0.13491302249371556 -4.533239405843168 -8.666211074960119
lfemur -28.684776897730053 -5.672586994351381 -7.0600904631960155
ltibia 14.561078525720077
lfoot -6.839904555592026 9.405940515712064
ltoes -5.792783655872144
rfemur 10.116484840953005 7.752314285090582 36.77052287256738
rtibia 19.643589693688416
rfoot -25.91355657223827 -8.581632116722368
rtoes -0.5602007985539417
lowerback 9.781629164164428 2.2776993702677832 7.553773908214945
upperback 0.21466369649707828 4.009379704135314 2.346500849467971
thorax -4.936768248446583 1.8151115679408951 -2.4564774066154413
lowerneck -17.43535976541585 -3.145937118693692 -1.2540422154068618
upperneck 19.500933865354614 -4.141117065388398 0.6513635533455397
head 9.039200840113562 -1.9702420665861367 -0.1126628159870674
lclavicle -8.121948160586073e-16 -6.948553014284959e-16
lhumerus -37.05660229331799 6.240265221193754 82.37607478520717
lradius 22.4409728013258
lwrist 4.626961029271788
lhand -29.414914177886853 20.834321358128804
lfingers 7.125020000000057
lthumb -2.7520218338405242 50.80574804294888
rclavicle -8.121948160586073e-16 -6.948553014284959e-16
rhumerus -18.129479272038864 -7.826483578373682 -82.53721038129224
rradius 33.22858004953348
rwrist -3.0840469928429552
rhand -17.87304444508061 30.413985161035907
rfingers 7.125020000000057
rthumb 8.393100477344198 -5.710999790843474
